<svg data-v-d3f97b9e="" xmlns="http://www.w3.org/2000/svg" viewBox="0 0 262 90"><!----><!----><!----><g data-v-d3f97b9e="" id="76f4078c-e100-42c4-96b9-5baf3a79a2fe" fill="white" transform="matrix(4.720692354045624,0,0,4.720692354045624,104.11798280251054,5.889063679970313)"><path d="M1.22 12.07L1.22 1.93L6.81 1.93L6.81 2.93L2.24 2.93L2.24 6.10L4.95 6.10L4.95 7.10L2.24 7.10L2.24 12.07L1.22 12.07ZM12.10 4.22L12.10 4.22L12.10 4.22Q13.83 4.22 14.97 5.47L14.97 5.47L14.97 5.47Q16.02 6.61 16.02 8.18L16.02 8.18L16.02 8.18Q16.04 12.07 16.02 12.13L16.02 12.13L16.02 12.13Q15.37 12.13 15.00 12.13L15.00 12.13L15.00 12.13Q15.00 12.08 15.00 10.42L15.00 10.42L15.00 10.42Q14.21 11.92 12.10 12.09L12.10 12.09L12.10 12.09Q10.38 12.09 9.29 10.92L9.29 10.92L9.29 10.92Q8.20 9.75 8.20 8.18L8.20 8.18L8.20 8.18Q8.20 6.62 9.23 5.48L9.23 5.48L9.23 5.48Q10.37 4.22 12.10 4.22ZM12.10 5.16L12.10 5.16L12.10 5.16Q10.90 5.16 10.04 6.05L10.04 6.05L10.04 6.05Q9.18 6.94 9.18 8.20L9.18 8.20L9.18 8.20Q9.18 9.01 9.62 9.76L9.62 9.76L9.62 9.76Q10.06 10.51 11.12 11.03L11.12 11.03L11.12 11.03Q13.75 11.62 14.87 8.63L14.87 8.63L14.87 8.63Q14.93 7.68 14.66 6.80L14.66 6.80L14.66 6.80Q14.47 6.41 14.14 6.05L14.14 6.05L14.14 6.05Q13.30 5.16 12.10 5.16ZM25.17 5.97L25.17 5.97L24.40 6.45L24.40 6.45Q23.41 5.12 21.70 5.12L21.70 5.12L21.70 5.12Q20.32 5.12 19.42 6.00L19.42 6.00L19.42 6.00Q18.51 6.88 18.51 8.15L18.51 8.15L18.51 8.15Q18.51 8.97 18.93 9.70L18.93 9.70L18.93 9.70Q19.35 10.42 20.07 10.82L20.07 10.82L20.07 10.82Q20.79 11.22 21.70 11.22L21.70 11.22L21.70 11.22Q23.36 11.22 24.40 9.91L24.40 9.91L25.17 10.40L25.17 10.40Q24.63 11.21 23.72 11.65L23.72 11.65L23.72 11.65Q22.82 12.09 21.66 12.09L21.66 12.09L21.66 12.09Q19.89 12.09 18.71 10.96L18.71 10.96L18.71 10.96Q17.54 9.84 17.54 8.22L17.54 8.22L17.54 8.22Q17.54 7.13 18.09 6.20L18.09 6.20L18.09 6.20Q18.64 5.26 19.60 4.74L19.60 4.74L19.60 4.74Q20.55 4.22 21.74 4.22L21.74 4.22L21.74 4.22Q22.48 4.22 23.17 4.44L23.17 4.44L23.17 4.44Q23.86 4.67 24.35 5.03L24.35 5.03L24.35 5.03Q24.83 5.40 25.17 5.97ZM29.29 11.34L26.21 4.41L27.23 4.41L29.80 10.19L32.31 4.41L33.34 4.41L28.86 14.64L27.84 14.64L29.29 11.34Z"></path></g><!----><g data-v-d3f97b9e="" id="84d56736-d7e7-45c6-8df3-a73a81615f26" transform="matrix(1.2278310366735585,0,0,1.2278310366735585,-15.968766682667805,-16.030154352149907)" stroke="none" fill="white"><path d="M27.3 40.6h-4.6c-5.2 0-9.4 4.2-9.4 9.4s4.2 9.4 9.4 9.4h4.6L24 62.7c-1.8 1.8-2.7 4.1-2.7 6.6s1 4.9 2.7 6.6c1.8 1.8 4.1 2.7 6.6 2.7s4.9-1 6.6-2.7l3.3-3.3v4.6c0 5.2 4.2 9.4 9.4 9.4s9.4-4.2 9.4-9.4v-4.6l3.3 3.3c1.8 1.8 4.1 2.7 6.6 2.7s4.9-1 6.6-2.7c1.8-1.8 2.7-4.1 2.7-6.6s-1-4.9-2.7-6.6l-3.3-3.3h4.6c5.2 0 9.4-4.2 9.4-9.4s-4.2-9.4-9.4-9.4h-4.6l3.3-3.3c3.7-3.7 3.7-9.6 0-13.3-1.8-1.8-4.1-2.7-6.6-2.7s-4.9 1-6.6 2.7l-3.3 3.3v-4.6c0-5.2-4.2-9.4-9.4-9.4s-9.4 4.2-9.4 9.4v4.6L37.2 24c-1.8-1.8-4.1-2.7-6.6-2.7s-4.9 1-6.6 2.7c-3.7 3.7-3.7 9.6 0 13.3l3.3 3.3zm-4.6 15.1c-3.1 0-5.7-2.5-5.7-5.7 0-3.1 2.5-5.7 5.7-5.7H31l5.7 5.7-5.7 5.7h-8.3zm25-11.4h4.7l3.3 3.3v4.7l-3.3 3.3h-4.7l-3.3-3.3v-4.7l3.3-3.3zm-7.1 9.6v1.8h-4.3l3-3 1.3 1.2zm5.5 5.5l1.3 1.3-3 3v-4.3h1.7zm7.8 0h1.8v4.3l-3-3 1.2-1.3zm5.5-5.5l1.3-1.3 3 3h-4.3v-1.7zm0-7.8v-1.8h4.3l-3 3-1.3-1.2zm-5.5-5.5l-1.3-1.3 3-3v4.3h-1.7zm-7.8 0h-1.8v-4.3l3 3-1.2 1.3zm-5.5 5.5l-1.3 1.3-3-3h4.3v1.7zm-5.9 27.2c-1.1 1.1-2.5 1.6-4 1.6s-2.9-.6-4-1.6c-1.1-1.1-1.6-2.5-1.6-4s.6-2.9 1.6-4l5.9-5.9h8v8l-5.9 5.9zm21 4c0 3.1-2.5 5.7-5.7 5.7s-5.7-2.5-5.7-5.7V69l5.7-5.7 5.7 5.7v8.3zm17.6-12c1.1 1.1 1.6 2.5 1.6 4s-.6 2.9-1.6 4-2.5 1.6-4 1.6-2.9-.6-4-1.6l-5.9-5.9v-8h8l5.9 5.9zm4-21c3.1 0 5.7 2.5 5.7 5.7 0 3.1-2.5 5.7-5.7 5.7H69L63.3 50l5.7-5.7h8.3zm-12-17.6c1.1-1.1 2.5-1.6 4-1.6s2.9.6 4 1.6c2.2 2.2 2.2 5.8 0 8l-5.9 5.9h-8v-8l5.9-5.9zm-21-4c0-3.1 2.5-5.7 5.7-5.7s5.7 2.5 5.7 5.7V31L50 36.7 44.3 31v-8.3zm-17.6 4c1.1-1.1 2.5-1.6 4-1.6s2.9.6 4 1.6l5.9 5.9v8h-8l-5.9-5.9c-2.2-2.2-2.2-5.8 0-8z"></path></g><!----></svg>