<svg data-v-d3f97b9e="" xmlns="http://www.w3.org/2000/svg" viewBox="0 0 77.76961452527226 60"><!----><!----><!----><!----><g data-v-d3f97b9e="" id="07f8dc33-cb2a-4eb1-84b7-b8d06c71c4b7" transform="matrix(0.840807167696357,0,0,0.840807167696357,-2.732622970979371,-14.659474123458914)" stroke="none" fill="white"><path d="M23.637 21.791a.56.56 0 0 0-.582.883c2.918 3.753.1 9.885.072 9.947a.559.559 0 0 0 1.004.486c.594-1.188 3.455-3.549 4.507-4.358a.558.558 0 0 0 .218-.452c-.085-5.118-5.169-6.494-5.219-6.506zM76.734 24.011a.566.566 0 0 0-.606-.238 7.14 7.14 0 0 0-1.159.437c-1.497.703-4.021 2.421-4.107 6.032a.556.556 0 0 0 .214.455c1.046.816 3.891 3.197 4.474 4.391a.559.559 0 0 0 .739.259l.002-.002a.556.556 0 0 0 .268-.738c-.027-.061-2.806-6.206.146-9.946a.566.566 0 0 0 .029-.65zM57.357 77.198c-1.081-1.701-2.528-2.694-4.075-2.802-.442-.03-.901-.043-1.352.053-4.316.92-5.012 6.443-5.024 6.604-.1 1.458.43 2.863 1.493 3.963 1.041 1.075 2.471 1.728 4.028 1.832a6.409 6.409 0 0 0 2.052-.188c2.365-.616 4.056-2.546 4.211-4.798.098-1.431-.414-3.218-1.333-4.664zm-8.111 1.79c.704-1.321 1.389-2.914 3.66-2.962 1.71-.036 2.781 1.394 3.476 2.78-2.893-.745-5.366-.404-7.136.182z"></path><path d="M80.618 38.339c-.614-.76-1.205-1.701-1.174-1.798a77.865 77.865 0 0 0 1.555-5.683c1.53-6.696 1.295-11.08-.665-12.346-1.166-.755-2.428-1.077-3.732-1.077-4.383 0-9.251 3.639-12.638 6.781l-.274.254c-.002.009-.727.261-1.5.261-.333 0-.674-.047-.973-.178-3.299-1.002-6.775-1.51-10.37-1.51-.385 0-.771.004-1.16.016-3.569.109-6.979.505-10.158 1.18.059.052.082.076.072.076-.168 0-8.669-6.116-15.022-6.116l-.199.002c-1.768.035-3.381.528-4.362 1.958-4.369 6.354-.144 14.034-.026 14.203l-1.329 1.152C6.757 47.895 3.813 65.806 3.25 70.283a17.31 17.31 0 0 1 1.781-.082c3.161 0 7.06.663 10.167 1.324.05.011.105.021.156.031 4.826 1.037 10.267 2.62 14.199 4.133 1.71.675 3.324 1.534 4.857 2.479 2.332 1.437 4.474 3.074 6.452 4.593 4.194 3.221 7.86 6.034 11.792 6.034.319 0 .639-.017.961-.056 4.634-.552 7.691-3.222 10.929-6.051 1.243-1.087 2.524-2.181 3.909-3.193.977-.712 1.994-1.389 3.121-1.966a71.833 71.833 0 0 1 15.167-5.76c4.244-1.075 7.46-1.456 9.003-1.588-.961-3.945-5.253-19.688-15.126-31.842zM37.066 56.795a2.748 2.748 0 0 1 1.967-3.354 2.75 2.75 0 1 1-1.967 3.354zm23.383-1.069a2.753 2.753 0 1 1 5.301 1.485 2.753 2.753 0 0 1-5.301-1.485zm8.642-4.252c-2.511-1.086-4.593-1.614-6.365-1.614-5.063.001-6.044 4.364-6.521 6.496l-1.861 9.621-.211 1.088 1.066.297c8.541 2.386 11.157 8.814 11.906 11.644-1.229.938-2.364 1.917-3.352 2.779-3.226 2.819-6.012 5.255-10.279 5.762a7.243 7.243 0 0 1-.819.049c-3.526 0-7.018-2.682-11.061-5.786-1.739-1.335-3.688-2.83-5.827-4.205 1.937-7.563 10.021-10.041 11.67-10.471l1.073-.279-.191-1.092-1.702-9.687c-.441-2.134-1.36-6.573-6.554-6.573-1.74 0-3.782.493-6.238 1.506C25.976 54.244 18.203 63.1 14.537 70.16c-3.805-.771-6.999-1.162-9.506-1.162-.132 0-.26.001-.389.003.954-6.259 4.283-21.598 14.85-32.614l1.288-1.116.818-.71-.595-.85c-.226-.409-3.872-7.231.005-12.87.641-.935 1.752-1.404 3.396-1.437l.174-.002c3.393 0 8.05 1.885 13.845 5.601.647.416.803.514 1.178.514h.832l.097-.256c2.891-.566 5.979-.902 9.194-1 .375-.012.75-.017 1.123-.017 3.442 0 6.792.484 9.962 1.441a3.64 3.64 0 0 0 1.38.247c.816 0 1.787-.115 2.313-.591l.006.007.271-.251c3.179-2.947 7.808-6.461 11.821-6.461 1.151 0 2.159.289 3.079.884 1.129.729 1.759 4.018.147 11.068a76.636 76.636 0 0 1-1.53 5.593c-.115.363-.271.859 1.387 2.916C88.485 49.931 92.76 63.55 94.236 69.13a61.031 61.031 0 0 0-6.839 1.242C83.91 63.45 76.899 54.855 69.091 51.474z"></path></g><!----></svg>